<mxfile host="app.diagrams.net" modified="2023-12-14T10:23:04.680Z" agent="Mozilla/5.0 (Windows NT 10.0; Win64; x64) AppleWebKit/537.36 (KHTML, like Gecko) Chrome/119.0.0.0 Safari/537.36" etag="FSRSSh5XT0uP_6bgwWZZ" version="22.1.8" type="google" pages="2">
  <diagram id="-rW1YneL_aaroQjh3g_W" name="Página-1">
    <mxGraphModel grid="0" page="1" gridSize="10" guides="1" tooltips="1" connect="1" arrows="1" fold="1" pageScale="1" pageWidth="827" pageHeight="1169" math="0" shadow="0">
      <root>
        <mxCell id="0" />
        <mxCell id="1" parent="0" />
        <mxCell id="TOYKRVpFgdd3Ip-o90Fe-3" value="200 Clientes" style="text;html=1;align=center;verticalAlign=middle;resizable=0;points=[];autosize=1;strokeColor=none;fillColor=none;" vertex="1" parent="1">
          <mxGeometry x="52" y="75" width="83" height="26" as="geometry" />
        </mxCell>
        <mxCell id="TOYKRVpFgdd3Ip-o90Fe-7" style="edgeStyle=orthogonalEdgeStyle;rounded=0;orthogonalLoop=1;jettySize=auto;html=1;" edge="1" parent="1" source="TOYKRVpFgdd3Ip-o90Fe-4" target="TOYKRVpFgdd3Ip-o90Fe-5">
          <mxGeometry relative="1" as="geometry" />
        </mxCell>
        <mxCell id="TOYKRVpFgdd3Ip-o90Fe-8" style="edgeStyle=orthogonalEdgeStyle;rounded=0;orthogonalLoop=1;jettySize=auto;html=1;" edge="1" parent="1" source="TOYKRVpFgdd3Ip-o90Fe-4" target="TOYKRVpFgdd3Ip-o90Fe-6">
          <mxGeometry relative="1" as="geometry" />
        </mxCell>
        <mxCell id="TOYKRVpFgdd3Ip-o90Fe-4" value="Actor" style="shape=umlActor;verticalLabelPosition=bottom;verticalAlign=top;html=1;outlineConnect=0;" vertex="1" parent="1">
          <mxGeometry x="296" y="84" width="30" height="60" as="geometry" />
        </mxCell>
        <mxCell id="TOYKRVpFgdd3Ip-o90Fe-5" value="Ingresar&amp;nbsp;" style="ellipse;whiteSpace=wrap;html=1;" vertex="1" parent="1">
          <mxGeometry x="410" y="68" width="94" height="26" as="geometry" />
        </mxCell>
        <mxCell id="TOYKRVpFgdd3Ip-o90Fe-6" value="Extraer" style="ellipse;whiteSpace=wrap;html=1;" vertex="1" parent="1">
          <mxGeometry x="407" y="118" width="94" height="26" as="geometry" />
        </mxCell>
        <mxCell id="TOYKRVpFgdd3Ip-o90Fe-10" value="Cajero 4" style="shape=cube;whiteSpace=wrap;html=1;boundedLbl=1;backgroundOutline=1;darkOpacity=0.05;darkOpacity2=0.1;fillColor=#fff2cc;strokeColor=#d6b656;" vertex="1" parent="1">
          <mxGeometry x="-395" y="466" width="120" height="80" as="geometry" />
        </mxCell>
        <mxCell id="TOYKRVpFgdd3Ip-o90Fe-14" value="" style="shape=note;whiteSpace=wrap;html=1;backgroundOutline=1;darkOpacity=0.05;fillColor=#d5e8d4;strokeColor=#82b366;" vertex="1" parent="1">
          <mxGeometry x="420" y="208" width="185" height="226" as="geometry" />
        </mxCell>
        <mxCell id="TOYKRVpFgdd3Ip-o90Fe-15" value="&lt;h1&gt;Cajero Info&lt;/h1&gt;&lt;p&gt;Saldo inicial : 50.000€&lt;/p&gt;&lt;p&gt;Capacidad máxima: 100.000€.&lt;/p&gt;&lt;p&gt;Solo puede acceder una persona por cajero -&amp;gt; exclusion mutua&lt;/p&gt;&lt;p&gt;Cuando este libre un cajero, se le asigna una persona nueva de la cola (Si hay alguien).&lt;/p&gt;" style="text;html=1;spacing=5;spacingTop=-20;whiteSpace=wrap;overflow=hidden;rounded=0;" vertex="1" parent="1">
          <mxGeometry x="422" y="208" width="183" height="224" as="geometry" />
        </mxCell>
        <mxCell id="TOYKRVpFgdd3Ip-o90Fe-16" value="" style="shape=note;whiteSpace=wrap;html=1;backgroundOutline=1;darkOpacity=0.05;fillColor=#e1d5e7;strokeColor=#9673a6;" vertex="1" parent="1">
          <mxGeometry x="504.5" y="499" width="272.5" height="343" as="geometry" />
        </mxCell>
        <mxCell id="TOYKRVpFgdd3Ip-o90Fe-17" value="&lt;h1&gt;Persona Info&lt;/h1&gt;&lt;p&gt;200 personas / clientes&lt;br&gt;&lt;/p&gt;&lt;p&gt;La persona puede ingresar o extraer&amp;nbsp; un importe. -&amp;gt; random(5000-10000) (miles).&lt;/p&gt;&lt;p&gt;Ingresar: 2 y 4 s.&lt;/p&gt;&lt;p&gt;Extraer 2,5 y 4,5 s&lt;/p&gt;&lt;p&gt;Esperan en una unica cola.&lt;/p&gt;&lt;p&gt;una vez realiza un caso de uso, el hilo muere.&lt;/p&gt;&lt;p&gt;Atributos:&lt;/p&gt;&lt;p&gt;ID de persona&lt;/p&gt;&lt;p&gt;&lt;br&gt;&lt;/p&gt;" style="text;html=1;strokeColor=none;fillColor=none;spacing=5;spacingTop=-20;whiteSpace=wrap;overflow=hidden;rounded=0;" vertex="1" parent="1">
          <mxGeometry x="513.5" y="508.5" width="251.5" height="324" as="geometry" />
        </mxCell>
        <mxCell id="TOYKRVpFgdd3Ip-o90Fe-19" style="edgeStyle=orthogonalEdgeStyle;rounded=0;orthogonalLoop=1;jettySize=auto;html=1;" edge="1" parent="1" source="TOYKRVpFgdd3Ip-o90Fe-18">
          <mxGeometry relative="1" as="geometry">
            <mxPoint x="130.54287283761164" y="136.5" as="targetPoint" />
          </mxGeometry>
        </mxCell>
        <mxCell id="TOYKRVpFgdd3Ip-o90Fe-18" value="" style="ellipse;whiteSpace=wrap;html=1;aspect=fixed;" vertex="1" parent="1">
          <mxGeometry x="19" y="115" width="43" height="43" as="geometry" />
        </mxCell>
        <mxCell id="TOYKRVpFgdd3Ip-o90Fe-20" value="Hilo" style="text;html=1;align=center;verticalAlign=middle;resizable=0;points=[];autosize=1;strokeColor=none;fillColor=none;" vertex="1" parent="1">
          <mxGeometry x="128" y="123" width="37" height="26" as="geometry" />
        </mxCell>
        <mxCell id="TOYKRVpFgdd3Ip-o90Fe-22" style="edgeStyle=orthogonalEdgeStyle;rounded=0;orthogonalLoop=1;jettySize=auto;html=1;" edge="1" parent="1" source="TOYKRVpFgdd3Ip-o90Fe-21">
          <mxGeometry relative="1" as="geometry">
            <mxPoint x="136.48570905412942" y="188.5" as="targetPoint" />
          </mxGeometry>
        </mxCell>
        <mxCell id="TOYKRVpFgdd3Ip-o90Fe-21" value="Recursos" style="shape=cube;whiteSpace=wrap;html=1;boundedLbl=1;backgroundOutline=1;darkOpacity=0.05;darkOpacity2=0.1;" vertex="1" parent="1">
          <mxGeometry x="2" y="165" width="95" height="46" as="geometry" />
        </mxCell>
        <mxCell id="TOYKRVpFgdd3Ip-o90Fe-23" value="Cajero" style="text;html=1;align=center;verticalAlign=middle;resizable=0;points=[];autosize=1;strokeColor=none;fillColor=none;" vertex="1" parent="1">
          <mxGeometry x="131" y="173" width="52" height="26" as="geometry" />
        </mxCell>
        <mxCell id="TOYKRVpFgdd3Ip-o90Fe-24" value="Personas" style="ellipse;whiteSpace=wrap;html=1;aspect=fixed;fillColor=#d5e8d4;strokeColor=#82b366;" vertex="1" parent="1">
          <mxGeometry x="-788" y="385" width="68" height="68" as="geometry" />
        </mxCell>
        <mxCell id="TOYKRVpFgdd3Ip-o90Fe-25" value="" style="shape=flexArrow;endArrow=classic;html=1;rounded=0;" edge="1" parent="1">
          <mxGeometry width="50" height="50" relative="1" as="geometry">
            <mxPoint x="-710" y="412" as="sourcePoint" />
            <mxPoint x="-567" y="412" as="targetPoint" />
          </mxGeometry>
        </mxCell>
        <mxCell id="TOYKRVpFgdd3Ip-o90Fe-26" value="Operarios" style="ellipse;whiteSpace=wrap;html=1;aspect=fixed;fillColor=#e1d5e7;strokeColor=#9673a6;" vertex="1" parent="1">
          <mxGeometry x="-137" y="360" width="80" height="80" as="geometry" />
        </mxCell>
        <mxCell id="TOYKRVpFgdd3Ip-o90Fe-28" value="" style="shape=note;whiteSpace=wrap;html=1;backgroundOutline=1;darkOpacity=0.05;fillColor=#ffe6cc;strokeColor=#d79b00;" vertex="1" parent="1">
          <mxGeometry x="86" y="508" width="320" height="308" as="geometry" />
        </mxCell>
        <mxCell id="TOYKRVpFgdd3Ip-o90Fe-29" value="&lt;h1&gt;Operarios&lt;/h1&gt;&lt;p&gt;2 operarios&lt;br&gt;&lt;/p&gt;&lt;p&gt;Extraer: Si cajero lleno, entonces se reduce la cantidad a la mitad 100.000 / 2 = 50.000. Se debera de llevar al banco central la cantidad de dinero extraida. (2 segundos)&lt;br&gt;&lt;/p&gt;&lt;p&gt;&lt;span style=&quot;background-color: initial;&quot;&gt;Llenar cajero / ingresar: Si un cajero se queda sin dinero hay que llevar del banco central 50000. (3 segundos).&lt;br&gt;&lt;/span&gt;&lt;/p&gt;&lt;p&gt;&lt;span style=&quot;background-color: initial;&quot;&gt;Los Operarios moriran unicamente si los cajeros se quedan a cero&lt;/span&gt;&lt;/p&gt;&lt;p&gt;Atributos:&lt;/p&gt;&lt;p&gt;ID de operarios.&lt;/p&gt;&lt;p&gt;&lt;br&gt;&lt;/p&gt;&lt;br&gt;&lt;p&gt;&lt;br&gt;&lt;/p&gt;" style="text;html=1;strokeColor=none;fillColor=none;spacing=5;spacingTop=-20;whiteSpace=wrap;overflow=hidden;rounded=0;" vertex="1" parent="1">
          <mxGeometry x="92" y="514" width="302" height="302" as="geometry" />
        </mxCell>
        <mxCell id="213ZR3Vs4Sug7kbHB3aE-2" value="" style="shape=note;whiteSpace=wrap;html=1;backgroundOutline=1;darkOpacity=0.05;fillColor=#ffe6cc;strokeColor=#d79b00;" vertex="1" parent="1">
          <mxGeometry x="75" y="960" width="318" height="271" as="geometry" />
        </mxCell>
        <mxCell id="LbQRR7b4N_GPmRd7gJA1-1" style="edgeStyle=orthogonalEdgeStyle;rounded=0;orthogonalLoop=1;jettySize=auto;html=1;" edge="1" parent="1" target="TOYKRVpFgdd3Ip-o90Fe-28">
          <mxGeometry relative="1" as="geometry">
            <mxPoint x="231" y="965" as="sourcePoint" />
          </mxGeometry>
        </mxCell>
        <mxCell id="213ZR3Vs4Sug7kbHB3aE-3" value="&lt;h1&gt;Problemas cajero&lt;br&gt;&lt;/h1&gt;&lt;p&gt;Si por ejemplo el cajero tiene 99.000€ y un cliente quiere ingresar 2.000€, se insertarán 1.000€ y esperará el cliente a que los operarios vacíen la mitad del cajero para insertar los 1.000€ restantes.&lt;/p&gt;&lt;p&gt;Habrá que comprobar que el banco central no este vacío si el cajero está vacío, para poder llenarlo a la mitad.&lt;br&gt;&lt;/p&gt;&lt;p&gt;Las personas deben de llegar de forma escalonada.&lt;/p&gt;" style="text;html=1;strokeColor=none;fillColor=none;spacing=5;spacingTop=-20;whiteSpace=wrap;overflow=hidden;rounded=0;" vertex="1" parent="1">
          <mxGeometry x="75" y="965" width="311" height="266" as="geometry" />
        </mxCell>
        <mxCell id="213ZR3Vs4Sug7kbHB3aE-5" value="" style="shape=note;whiteSpace=wrap;html=1;backgroundOutline=1;darkOpacity=0.05;fillColor=#dae8fc;strokeColor=#6c8ebf;" vertex="1" parent="1">
          <mxGeometry x="492" y="919" width="273" height="301" as="geometry" />
        </mxCell>
        <mxCell id="213ZR3Vs4Sug7kbHB3aE-6" value="&lt;h1&gt;Banco Central&lt;/h1&gt;&lt;p&gt;Saldo inicial: 250.000 €&lt;br&gt;&lt;/p&gt;&lt;p&gt;Capacidad máxima: Infinita&lt;/p&gt;&lt;p&gt;Puede quedarse en 0.&lt;/p&gt;&lt;p&gt;Fin de ejecución normal de la simulación: Banco central 0 € y 4 cajeros 0 €.&lt;br&gt;&lt;/p&gt;&lt;p&gt;&lt;br&gt;&lt;/p&gt;&lt;p&gt;&lt;br&gt;&lt;/p&gt;&lt;p&gt;&lt;br&gt;&lt;/p&gt;" style="text;html=1;strokeColor=none;fillColor=none;spacing=5;spacingTop=-20;whiteSpace=wrap;overflow=hidden;rounded=0;" vertex="1" parent="1">
          <mxGeometry x="504.5" y="927" width="248" height="267" as="geometry" />
        </mxCell>
        <mxCell id="213ZR3Vs4Sug7kbHB3aE-7" value="" style="shape=note;whiteSpace=wrap;html=1;backgroundOutline=1;darkOpacity=0.05;" vertex="1" parent="1">
          <mxGeometry x="54" y="1313" width="303" height="203" as="geometry" />
        </mxCell>
        <mxCell id="213ZR3Vs4Sug7kbHB3aE-8" value="&lt;h1&gt;Log del sistema&lt;br&gt;&lt;/h1&gt;&lt;p&gt;Se llamara evolucionCajeros.txt&lt;/p&gt;&lt;p&gt;contendrá las acciones realizadas.&lt;/p&gt;&lt;p&gt;Atributos:&lt;/p&gt;&lt;p&gt;Fecha, hora, minuto, segundo&lt;br&gt;&lt;/p&gt;&lt;p&gt;&lt;br&gt;&lt;/p&gt;" style="text;html=1;strokeColor=none;fillColor=none;spacing=5;spacingTop=-20;whiteSpace=wrap;overflow=hidden;rounded=0;" vertex="1" parent="1">
          <mxGeometry x="61" y="1320" width="285" height="189" as="geometry" />
        </mxCell>
        <mxCell id="213ZR3Vs4Sug7kbHB3aE-9" value="" style="shape=note;whiteSpace=wrap;html=1;backgroundOutline=1;darkOpacity=0.05;size=32;fillColor=#f5f5f5;fontColor=#333333;strokeColor=#666666;" vertex="1" parent="1">
          <mxGeometry x="453" y="1320" width="288" height="195" as="geometry" />
        </mxCell>
        <mxCell id="213ZR3Vs4Sug7kbHB3aE-10" value="&lt;h1&gt;Botones sistema&lt;br&gt;&lt;/h1&gt;&lt;p&gt;Semáforo &lt;br&gt;&lt;/p&gt;&lt;p&gt;1 botón pausa / reanudar (sistema)&lt;br&gt;&lt;/p&gt;&lt;p&gt;2 botones de pausa / reanudar (operarios)&lt;br&gt;&lt;/p&gt;" style="text;html=1;strokeColor=none;fillColor=none;spacing=5;spacingTop=-20;whiteSpace=wrap;overflow=hidden;rounded=0;" vertex="1" parent="1">
          <mxGeometry x="463" y="1327" width="269" height="181" as="geometry" />
        </mxCell>
        <mxCell id="LbQRR7b4N_GPmRd7gJA1-3" value="Banco (Monitor de mesa)" style="swimlane;whiteSpace=wrap;html=1;" vertex="1" parent="1">
          <mxGeometry x="-542" y="314" width="297" height="252" as="geometry" />
        </mxCell>
        <mxCell id="TOYKRVpFgdd3Ip-o90Fe-11" value="Cajero 3" style="shape=cube;whiteSpace=wrap;html=1;boundedLbl=1;backgroundOutline=1;darkOpacity=0.05;darkOpacity2=0.1;fillColor=#f5f5f5;fontColor=#333333;strokeColor=#666666;" vertex="1" parent="LbQRR7b4N_GPmRd7gJA1-3">
          <mxGeometry x="21" y="152" width="120" height="80" as="geometry" />
        </mxCell>
        <mxCell id="TOYKRVpFgdd3Ip-o90Fe-12" value="Cajero 2" style="shape=cube;whiteSpace=wrap;html=1;boundedLbl=1;backgroundOutline=1;darkOpacity=0.05;darkOpacity2=0.1;fillColor=#f8cecc;strokeColor=#b85450;" vertex="1" parent="LbQRR7b4N_GPmRd7gJA1-3">
          <mxGeometry x="134" y="56" width="120" height="80" as="geometry" />
        </mxCell>
        <mxCell id="TOYKRVpFgdd3Ip-o90Fe-9" value="Cajero 1" style="shape=cube;whiteSpace=wrap;html=1;boundedLbl=1;backgroundOutline=1;darkOpacity=0.05;darkOpacity2=0.1;fillColor=#dae8fc;strokeColor=#6c8ebf;" vertex="1" parent="LbQRR7b4N_GPmRd7gJA1-3">
          <mxGeometry x="16" y="56" width="120" height="80" as="geometry" />
        </mxCell>
        <mxCell id="LbQRR7b4N_GPmRd7gJA1-4" value="Banco central" style="shape=cylinder3;whiteSpace=wrap;html=1;boundedLbl=1;backgroundOutline=1;size=15;fillColor=#fad9d5;strokeColor=#ae4132;" vertex="1" parent="1">
          <mxGeometry x="75" y="337" width="154" height="126" as="geometry" />
        </mxCell>
        <mxCell id="LbQRR7b4N_GPmRd7gJA1-8" value="" style="shape=flexArrow;endArrow=classic;startArrow=classic;html=1;rounded=0;entryX=0;entryY=0.5;entryDx=0;entryDy=0;" edge="1" parent="1" target="TOYKRVpFgdd3Ip-o90Fe-26">
          <mxGeometry width="100" height="100" relative="1" as="geometry">
            <mxPoint x="-242" y="399" as="sourcePoint" />
            <mxPoint x="-113" y="420.5" as="targetPoint" />
          </mxGeometry>
        </mxCell>
        <mxCell id="LbQRR7b4N_GPmRd7gJA1-9" value="" style="shape=flexArrow;endArrow=classic;startArrow=classic;html=1;rounded=0;entryX=0;entryY=0.5;entryDx=0;entryDy=0;entryPerimeter=0;exitX=1;exitY=0.5;exitDx=0;exitDy=0;" edge="1" parent="1" source="TOYKRVpFgdd3Ip-o90Fe-26" target="LbQRR7b4N_GPmRd7gJA1-4">
          <mxGeometry width="100" height="100" relative="1" as="geometry">
            <mxPoint x="-41" y="391" as="sourcePoint" />
            <mxPoint x="64" y="392" as="targetPoint" />
          </mxGeometry>
        </mxCell>
        <mxCell id="LbQRR7b4N_GPmRd7gJA1-10" value="Extraen o ingresan" style="text;html=1;align=center;verticalAlign=middle;resizable=0;points=[];autosize=1;strokeColor=none;fillColor=none;" vertex="1" parent="1">
          <mxGeometry x="-706" y="427" width="116" height="26" as="geometry" />
        </mxCell>
        <mxCell id="LbQRR7b4N_GPmRd7gJA1-12" value="Trae y saca dinero de los cajeros" style="text;html=1;align=center;verticalAlign=middle;resizable=0;points=[];autosize=1;strokeColor=none;fillColor=none;" vertex="1" parent="1">
          <mxGeometry x="-192.5" y="317" width="190" height="26" as="geometry" />
        </mxCell>
        <mxCell id="a63DuIp2s9BweYHdK9Pb-1" value="" style="shape=mxgraph.cisco.computers_and_peripherals.pc;sketch=0;html=1;pointerEvents=1;dashed=0;fillColor=#036897;strokeColor=#ffffff;strokeWidth=2;verticalLabelPosition=bottom;verticalAlign=top;align=center;outlineConnect=0;" vertex="1" parent="1">
          <mxGeometry x="-644" y="1960" width="78" height="70" as="geometry" />
        </mxCell>
        <mxCell id="a63DuIp2s9BweYHdK9Pb-2" value="" style="shape=mxgraph.cisco.computers_and_peripherals.pc;sketch=0;html=1;pointerEvents=1;dashed=0;fillColor=#036897;strokeColor=#ffffff;strokeWidth=2;verticalLabelPosition=bottom;verticalAlign=top;align=center;outlineConnect=0;" vertex="1" parent="1">
          <mxGeometry x="-273.5" y="1960" width="78" height="70" as="geometry" />
        </mxCell>
        <mxCell id="a63DuIp2s9BweYHdK9Pb-3" value="Cliente&amp;nbsp;" style="text;html=1;align=center;verticalAlign=middle;resizable=0;points=[];autosize=1;strokeColor=none;fillColor=none;" vertex="1" parent="1">
          <mxGeometry x="-652.5" y="2046" width="60" height="26" as="geometry" />
        </mxCell>
        <mxCell id="a63DuIp2s9BweYHdK9Pb-4" value="&lt;br&gt;Servidor&lt;br&gt;" style="text;html=1;align=center;verticalAlign=middle;resizable=0;points=[];autosize=1;strokeColor=none;fillColor=none;" vertex="1" parent="1">
          <mxGeometry x="-266" y="2017" width="63" height="41" as="geometry" />
        </mxCell>
        <mxCell id="a63DuIp2s9BweYHdK9Pb-5" value="" style="endArrow=none;html=1;rounded=0;" edge="1" parent="1" source="a63DuIp2s9BweYHdK9Pb-1" target="a63DuIp2s9BweYHdK9Pb-2">
          <mxGeometry width="50" height="50" relative="1" as="geometry">
            <mxPoint x="-400" y="2117" as="sourcePoint" />
            <mxPoint x="-350" y="2067" as="targetPoint" />
          </mxGeometry>
        </mxCell>
        <mxCell id="a63DuIp2s9BweYHdK9Pb-6" value="TCP" style="text;html=1;align=center;verticalAlign=middle;resizable=0;points=[];autosize=1;strokeColor=none;fillColor=none;" vertex="1" parent="1">
          <mxGeometry x="-456.5" y="1970" width="42" height="26" as="geometry" />
        </mxCell>
        <mxCell id="a63DuIp2s9BweYHdK9Pb-21" value="Cajero 4" style="shape=cube;whiteSpace=wrap;html=1;boundedLbl=1;backgroundOutline=1;darkOpacity=0.05;darkOpacity2=0.1;fillColor=#fff2cc;strokeColor=#d6b656;" vertex="1" parent="1">
          <mxGeometry x="801" y="1769" width="120" height="80" as="geometry" />
        </mxCell>
        <mxCell id="a63DuIp2s9BweYHdK9Pb-22" value="Personas" style="ellipse;whiteSpace=wrap;html=1;aspect=fixed;fillColor=#d5e8d4;strokeColor=#82b366;" vertex="1" parent="1">
          <mxGeometry x="408" y="1688" width="68" height="68" as="geometry" />
        </mxCell>
        <mxCell id="a63DuIp2s9BweYHdK9Pb-23" value="" style="shape=flexArrow;endArrow=classic;html=1;rounded=0;" edge="1" parent="1">
          <mxGeometry width="50" height="50" relative="1" as="geometry">
            <mxPoint x="486" y="1715" as="sourcePoint" />
            <mxPoint x="629" y="1715" as="targetPoint" />
          </mxGeometry>
        </mxCell>
        <mxCell id="a63DuIp2s9BweYHdK9Pb-24" value="Operarios" style="ellipse;whiteSpace=wrap;html=1;aspect=fixed;fillColor=#e1d5e7;strokeColor=#9673a6;" vertex="1" parent="1">
          <mxGeometry x="1059" y="1663" width="80" height="80" as="geometry" />
        </mxCell>
        <mxCell id="a63DuIp2s9BweYHdK9Pb-25" value="Banco (Monitor de mesa)" style="swimlane;whiteSpace=wrap;html=1;" vertex="1" parent="1">
          <mxGeometry x="654" y="1617" width="297" height="252" as="geometry" />
        </mxCell>
        <mxCell id="a63DuIp2s9BweYHdK9Pb-26" value="Cajero 3" style="shape=cube;whiteSpace=wrap;html=1;boundedLbl=1;backgroundOutline=1;darkOpacity=0.05;darkOpacity2=0.1;fillColor=#f5f5f5;fontColor=#333333;strokeColor=#666666;" vertex="1" parent="a63DuIp2s9BweYHdK9Pb-25">
          <mxGeometry x="21" y="152" width="120" height="80" as="geometry" />
        </mxCell>
        <mxCell id="a63DuIp2s9BweYHdK9Pb-27" value="Cajero 2" style="shape=cube;whiteSpace=wrap;html=1;boundedLbl=1;backgroundOutline=1;darkOpacity=0.05;darkOpacity2=0.1;fillColor=#f8cecc;strokeColor=#b85450;" vertex="1" parent="a63DuIp2s9BweYHdK9Pb-25">
          <mxGeometry x="134" y="56" width="120" height="80" as="geometry" />
        </mxCell>
        <mxCell id="a63DuIp2s9BweYHdK9Pb-28" value="Cajero 1" style="shape=cube;whiteSpace=wrap;html=1;boundedLbl=1;backgroundOutline=1;darkOpacity=0.05;darkOpacity2=0.1;fillColor=#dae8fc;strokeColor=#6c8ebf;" vertex="1" parent="a63DuIp2s9BweYHdK9Pb-25">
          <mxGeometry x="16" y="56" width="120" height="80" as="geometry" />
        </mxCell>
        <mxCell id="a63DuIp2s9BweYHdK9Pb-29" value="Banco central" style="shape=cylinder3;whiteSpace=wrap;html=1;boundedLbl=1;backgroundOutline=1;size=15;fillColor=#fad9d5;strokeColor=#ae4132;" vertex="1" parent="1">
          <mxGeometry x="1271" y="1640" width="154" height="126" as="geometry" />
        </mxCell>
        <mxCell id="a63DuIp2s9BweYHdK9Pb-30" value="" style="shape=flexArrow;endArrow=classic;startArrow=classic;html=1;rounded=0;entryX=0;entryY=0.5;entryDx=0;entryDy=0;" edge="1" parent="1" target="a63DuIp2s9BweYHdK9Pb-24">
          <mxGeometry width="100" height="100" relative="1" as="geometry">
            <mxPoint x="954" y="1702" as="sourcePoint" />
            <mxPoint x="1083" y="1723.5" as="targetPoint" />
          </mxGeometry>
        </mxCell>
        <mxCell id="a63DuIp2s9BweYHdK9Pb-31" value="" style="shape=flexArrow;endArrow=classic;startArrow=classic;html=1;rounded=0;entryX=0;entryY=0.5;entryDx=0;entryDy=0;entryPerimeter=0;exitX=1;exitY=0.5;exitDx=0;exitDy=0;" edge="1" parent="1" source="a63DuIp2s9BweYHdK9Pb-24" target="a63DuIp2s9BweYHdK9Pb-29">
          <mxGeometry width="100" height="100" relative="1" as="geometry">
            <mxPoint x="1155" y="1694" as="sourcePoint" />
            <mxPoint x="1260" y="1695" as="targetPoint" />
          </mxGeometry>
        </mxCell>
        <mxCell id="a63DuIp2s9BweYHdK9Pb-32" value="Extraen o ingresan" style="text;html=1;align=center;verticalAlign=middle;resizable=0;points=[];autosize=1;strokeColor=none;fillColor=none;" vertex="1" parent="1">
          <mxGeometry x="490" y="1730" width="116" height="26" as="geometry" />
        </mxCell>
        <mxCell id="a63DuIp2s9BweYHdK9Pb-33" value="Trae y saca dinero de los cajeros" style="text;html=1;align=center;verticalAlign=middle;resizable=0;points=[];autosize=1;strokeColor=none;fillColor=none;" vertex="1" parent="1">
          <mxGeometry x="1003.5" y="1620" width="190" height="26" as="geometry" />
        </mxCell>
        <mxCell id="a63DuIp2s9BweYHdK9Pb-34" value="Logica del Servidor" style="swimlane;whiteSpace=wrap;html=1;" vertex="1" parent="1">
          <mxGeometry x="362" y="1558" width="1095" height="352" as="geometry" />
        </mxCell>
        <mxCell id="a63DuIp2s9BweYHdK9Pb-35" value="main()" style="text;html=1;align=center;verticalAlign=middle;resizable=0;points=[];autosize=1;strokeColor=none;fillColor=none;" vertex="1" parent="1">
          <mxGeometry x="-674" y="2079" width="54" height="26" as="geometry" />
        </mxCell>
        <mxCell id="a63DuIp2s9BweYHdK9Pb-36" value="main()" style="text;html=1;align=center;verticalAlign=middle;resizable=0;points=[];autosize=1;strokeColor=none;fillColor=none;" vertex="1" parent="1">
          <mxGeometry x="-297" y="2073" width="54" height="26" as="geometry" />
        </mxCell>
        <mxCell id="a63DuIp2s9BweYHdK9Pb-37" value="" style="endArrow=classic;html=1;rounded=0;exitX=0.5;exitY=1;exitDx=0;exitDy=0;entryX=0.145;entryY=0;entryDx=0;entryDy=4.35;entryPerimeter=0;" edge="1" parent="1" source="a63DuIp2s9BweYHdK9Pb-22" target="H0kZTeJ23ygIbYJcNCNT-1">
          <mxGeometry width="50" height="50" relative="1" as="geometry">
            <mxPoint x="491" y="2050" as="sourcePoint" />
            <mxPoint x="205" y="1949" as="targetPoint" />
          </mxGeometry>
        </mxCell>
        <mxCell id="a63DuIp2s9BweYHdK9Pb-38" value="" style="endArrow=classic;html=1;rounded=0;exitX=0.5;exitY=1;exitDx=0;exitDy=0;entryX=0.674;entryY=0.04;entryDx=0;entryDy=0;entryPerimeter=0;" edge="1" parent="1" source="a63DuIp2s9BweYHdK9Pb-25" target="H0kZTeJ23ygIbYJcNCNT-1">
          <mxGeometry width="50" height="50" relative="1" as="geometry">
            <mxPoint x="713" y="1953" as="sourcePoint" />
            <mxPoint x="227" y="1966" as="targetPoint" />
          </mxGeometry>
        </mxCell>
        <mxCell id="a63DuIp2s9BweYHdK9Pb-39" value="" style="endArrow=classic;html=1;rounded=0;exitX=0.5;exitY=1;exitDx=0;exitDy=0;entryX=1;entryY=0;entryDx=0;entryDy=15;entryPerimeter=0;" edge="1" parent="1" source="a63DuIp2s9BweYHdK9Pb-24" target="H0kZTeJ23ygIbYJcNCNT-1">
          <mxGeometry width="50" height="50" relative="1" as="geometry">
            <mxPoint x="713" y="1953" as="sourcePoint" />
            <mxPoint x="262" y="1982" as="targetPoint" />
          </mxGeometry>
        </mxCell>
        <mxCell id="a63DuIp2s9BweYHdK9Pb-40" value="" style="endArrow=classic;html=1;rounded=0;exitX=0.5;exitY=1;exitDx=0;exitDy=0;exitPerimeter=0;entryX=1;entryY=0.5;entryDx=0;entryDy=0;entryPerimeter=0;" edge="1" parent="1" source="a63DuIp2s9BweYHdK9Pb-29" target="H0kZTeJ23ygIbYJcNCNT-1">
          <mxGeometry width="50" height="50" relative="1" as="geometry">
            <mxPoint x="713" y="1953" as="sourcePoint" />
            <mxPoint x="292" y="1994" as="targetPoint" />
          </mxGeometry>
        </mxCell>
        <mxCell id="H0kZTeJ23ygIbYJcNCNT-1" value="" style="shape=cylinder3;whiteSpace=wrap;html=1;boundedLbl=1;backgroundOutline=1;size=15;" vertex="1" parent="1">
          <mxGeometry x="105" y="1950" width="60" height="80" as="geometry" />
        </mxCell>
        <mxCell id="H0kZTeJ23ygIbYJcNCNT-2" value="Buffer" style="text;html=1;align=center;verticalAlign=middle;resizable=0;points=[];autosize=1;strokeColor=none;fillColor=none;" vertex="1" parent="1">
          <mxGeometry x="110" y="2040" width="50" height="26" as="geometry" />
        </mxCell>
        <mxCell id="H0kZTeJ23ygIbYJcNCNT-4" value="" style="shape=flexArrow;endArrow=classic;html=1;rounded=0;" edge="1" parent="1" source="a63DuIp2s9BweYHdK9Pb-2">
          <mxGeometry width="50" height="50" relative="1" as="geometry">
            <mxPoint x="75" y="2071" as="sourcePoint" />
            <mxPoint x="104" y="1995" as="targetPoint" />
          </mxGeometry>
        </mxCell>
        <mxCell id="H0kZTeJ23ygIbYJcNCNT-5" value="Consume" style="text;html=1;align=center;verticalAlign=middle;resizable=0;points=[];autosize=1;strokeColor=none;fillColor=none;" vertex="1" parent="1">
          <mxGeometry x="-130" y="1934" width="73" height="26" as="geometry" />
        </mxCell>
        <mxCell id="H0kZTeJ23ygIbYJcNCNT-6" value="MandarMensaje(String mensaje)" style="text;html=1;align=center;verticalAlign=middle;resizable=0;points=[];autosize=1;strokeColor=none;fillColor=none;" vertex="1" parent="1">
          <mxGeometry x="222.5" y="1995" width="198" height="26" as="geometry" />
        </mxCell>
        <mxCell id="H0kZTeJ23ygIbYJcNCNT-7" value="extraerMensaje()" style="text;html=1;align=center;verticalAlign=middle;resizable=0;points=[];autosize=1;strokeColor=none;fillColor=none;" vertex="1" parent="1">
          <mxGeometry x="-144.5" y="2034" width="110" height="26" as="geometry" />
        </mxCell>
        <mxCell id="H0kZTeJ23ygIbYJcNCNT-9" value="Vista&amp;nbsp; Cliente" style="swimlane;whiteSpace=wrap;html=1;" vertex="1" parent="1">
          <mxGeometry x="-712" y="1919" width="200" height="200" as="geometry" />
        </mxCell>
        <mxCell id="H0kZTeJ23ygIbYJcNCNT-10" value="Vista Servidor" style="swimlane;whiteSpace=wrap;html=1;" vertex="1" parent="1">
          <mxGeometry x="-493.5" y="1457" width="200" height="200" as="geometry" />
        </mxCell>
        <mxCell id="H0kZTeJ23ygIbYJcNCNT-12" value="" style="shape=flexArrow;endArrow=classic;html=1;rounded=0;entryX=0.5;entryY=1;entryDx=0;entryDy=0;" edge="1" parent="1" target="H0kZTeJ23ygIbYJcNCNT-10">
          <mxGeometry width="50" height="50" relative="1" as="geometry">
            <mxPoint x="8" y="1750" as="sourcePoint" />
            <mxPoint x="152" y="1841" as="targetPoint" />
            <Array as="points">
              <mxPoint x="-331" y="1769" />
            </Array>
          </mxGeometry>
        </mxCell>
        <mxCell id="H0kZTeJ23ygIbYJcNCNT-13" value="Consume" style="text;html=1;align=center;verticalAlign=middle;resizable=0;points=[];autosize=1;strokeColor=none;fillColor=none;" vertex="1" parent="1">
          <mxGeometry x="-103" y="1766" width="73" height="26" as="geometry" />
        </mxCell>
        <mxCell id="Id2qoOjD6GwzRdI1iqj3-3" value="" style="shape=cylinder3;whiteSpace=wrap;html=1;boundedLbl=1;backgroundOutline=1;size=15;" vertex="1" parent="1">
          <mxGeometry x="13" y="1692" width="60" height="80" as="geometry" />
        </mxCell>
        <mxCell id="Id2qoOjD6GwzRdI1iqj3-4" value="Buffer" style="text;html=1;align=center;verticalAlign=middle;resizable=0;points=[];autosize=1;strokeColor=none;fillColor=none;" vertex="1" parent="1">
          <mxGeometry x="2" y="1792" width="50" height="26" as="geometry" />
        </mxCell>
        <mxCell id="Id2qoOjD6GwzRdI1iqj3-5" value="" style="endArrow=classic;html=1;rounded=0;exitX=0;exitY=0;exitDx=0;exitDy=0;" edge="1" parent="1" source="a63DuIp2s9BweYHdK9Pb-25" target="Id2qoOjD6GwzRdI1iqj3-3">
          <mxGeometry width="50" height="50" relative="1" as="geometry">
            <mxPoint x="608" y="1659" as="sourcePoint" />
            <mxPoint x="658" y="1609" as="targetPoint" />
          </mxGeometry>
        </mxCell>
      </root>
    </mxGraphModel>
  </diagram>
  <diagram id="KnIyE9oFtjrO3DZgg13S" name="Página-2">
    <mxGraphModel grid="0" page="1" gridSize="10" guides="1" tooltips="1" connect="1" arrows="1" fold="1" pageScale="1" pageWidth="827" pageHeight="1169" math="0" shadow="0">
      <root>
        <mxCell id="0" />
        <mxCell id="1" parent="0" />
        <mxCell id="SP0Xm4DU5gB8TDn_Py0f-1" value="Logica del Servidor" style="swimlane;whiteSpace=wrap;html=1;swimlaneFillColor=default;fillColor=#1ba1e2;fontColor=#ffffff;strokeColor=#006EAF;" vertex="1" parent="1">
          <mxGeometry x="451" y="2641" width="765" height="254" as="geometry" />
        </mxCell>
        <mxCell id="SP0Xm4DU5gB8TDn_Py0f-2" value="Personas" style="ellipse;whiteSpace=wrap;html=1;aspect=fixed;fillColor=#1ba1e2;strokeColor=#006EAF;fontColor=#ffffff;" vertex="1" parent="SP0Xm4DU5gB8TDn_Py0f-1">
          <mxGeometry x="21.5" y="91" width="53" height="53" as="geometry" />
        </mxCell>
        <mxCell id="SP0Xm4DU5gB8TDn_Py0f-3" value="" style="shape=flexArrow;endArrow=classic;html=1;rounded=0;entryX=0;entryY=0.5;entryDx=0;entryDy=0;" edge="1" parent="SP0Xm4DU5gB8TDn_Py0f-1" target="SP0Xm4DU5gB8TDn_Py0f-9">
          <mxGeometry width="50" height="50" relative="1" as="geometry">
            <mxPoint x="74.5" y="116.90999999999985" as="sourcePoint" />
            <mxPoint x="128" y="117" as="targetPoint" />
          </mxGeometry>
        </mxCell>
        <mxCell id="SP0Xm4DU5gB8TDn_Py0f-4" value="Extraen o ingresan" style="text;html=1;align=center;verticalAlign=middle;resizable=0;points=[];autosize=1;strokeColor=none;fillColor=none;" vertex="1" parent="SP0Xm4DU5gB8TDn_Py0f-1">
          <mxGeometry x="70" y="81" width="116" height="26" as="geometry" />
        </mxCell>
        <mxCell id="SP0Xm4DU5gB8TDn_Py0f-5" value="Cajero 4" style="shape=cube;whiteSpace=wrap;html=1;boundedLbl=1;backgroundOutline=1;darkOpacity=0.05;darkOpacity2=0.1;fillColor=#1ba1e2;strokeColor=#006EAF;fontColor=#ffffff;" vertex="1" parent="SP0Xm4DU5gB8TDn_Py0f-1">
          <mxGeometry x="294" y="118" width="84" height="31" as="geometry" />
        </mxCell>
        <mxCell id="SP0Xm4DU5gB8TDn_Py0f-6" value="Cajero 3" style="shape=cube;whiteSpace=wrap;html=1;boundedLbl=1;backgroundOutline=1;darkOpacity=0.05;darkOpacity2=0.1;fillColor=#1ba1e2;fontColor=#ffffff;strokeColor=#006EAF;" vertex="1" parent="SP0Xm4DU5gB8TDn_Py0f-1">
          <mxGeometry x="220" y="118" width="94" height="32" as="geometry" />
        </mxCell>
        <mxCell id="SP0Xm4DU5gB8TDn_Py0f-7" value="Cajero 2" style="shape=cube;whiteSpace=wrap;html=1;boundedLbl=1;backgroundOutline=1;darkOpacity=0.05;darkOpacity2=0.1;fillColor=#1ba1e2;strokeColor=#006EAF;fontColor=#ffffff;" vertex="1" parent="SP0Xm4DU5gB8TDn_Py0f-1">
          <mxGeometry x="272" y="85" width="87" height="33" as="geometry" />
        </mxCell>
        <mxCell id="SP0Xm4DU5gB8TDn_Py0f-8" value="Cajero 1" style="shape=cube;whiteSpace=wrap;html=1;boundedLbl=1;backgroundOutline=1;darkOpacity=0.05;darkOpacity2=0.1;fillColor=#1ba1e2;strokeColor=#006EAF;fontColor=#ffffff;" vertex="1" parent="SP0Xm4DU5gB8TDn_Py0f-1">
          <mxGeometry x="200" y="85" width="94" height="33" as="geometry" />
        </mxCell>
        <mxCell id="SP0Xm4DU5gB8TDn_Py0f-9" value="BancoMonitor" style="swimlane;whiteSpace=wrap;html=1;fillColor=#1ba1e2;fontColor=#ffffff;strokeColor=#006EAF;" vertex="1" parent="SP0Xm4DU5gB8TDn_Py0f-1">
          <mxGeometry x="188" y="50.5" width="203" height="134" as="geometry" />
        </mxCell>
        <mxCell id="SP0Xm4DU5gB8TDn_Py0f-10" value="" style="shape=flexArrow;endArrow=classic;startArrow=classic;html=1;rounded=0;" edge="1" parent="SP0Xm4DU5gB8TDn_Py0f-1">
          <mxGeometry width="100" height="100" relative="1" as="geometry">
            <mxPoint x="391" y="123" as="sourcePoint" />
            <mxPoint x="458" y="124" as="targetPoint" />
          </mxGeometry>
        </mxCell>
        <mxCell id="SP0Xm4DU5gB8TDn_Py0f-11" value="Operarios" style="ellipse;whiteSpace=wrap;html=1;aspect=fixed;fillColor=#1ba1e2;strokeColor=#006EAF;fontColor=#ffffff;" vertex="1" parent="SP0Xm4DU5gB8TDn_Py0f-1">
          <mxGeometry x="459" y="94" width="58.5" height="58.5" as="geometry" />
        </mxCell>
        <mxCell id="SP0Xm4DU5gB8TDn_Py0f-12" value="" style="shape=flexArrow;endArrow=classic;startArrow=classic;html=1;rounded=0;exitX=1;exitY=0.5;exitDx=0;exitDy=0;" edge="1" parent="SP0Xm4DU5gB8TDn_Py0f-1">
          <mxGeometry width="100" height="100" relative="1" as="geometry">
            <mxPoint x="517.5" y="122.90999999999985" as="sourcePoint" />
            <mxPoint x="596" y="125" as="targetPoint" />
          </mxGeometry>
        </mxCell>
        <mxCell id="SP0Xm4DU5gB8TDn_Py0f-13" value="Banco central" style="shape=cylinder3;whiteSpace=wrap;html=1;boundedLbl=1;backgroundOutline=1;size=15;fillColor=#1ba1e2;strokeColor=#006EAF;fontColor=#ffffff;" vertex="1" parent="SP0Xm4DU5gB8TDn_Py0f-1">
          <mxGeometry x="598" y="71" width="80" height="99.5" as="geometry" />
        </mxCell>
        <mxCell id="SP0Xm4DU5gB8TDn_Py0f-14" value="Manda info" style="text;html=1;align=center;verticalAlign=middle;resizable=0;points=[];autosize=1;strokeColor=none;fillColor=none;" vertex="1" parent="1">
          <mxGeometry x="315" y="2782" width="78" height="26" as="geometry" />
        </mxCell>
        <mxCell id="SP0Xm4DU5gB8TDn_Py0f-15" value="" style="endArrow=classic;html=1;rounded=0;edgeStyle=orthogonalEdgeStyle;entryX=0.982;entryY=0.413;entryDx=0;entryDy=0;entryPerimeter=0;" edge="1" parent="1" target="SP0Xm4DU5gB8TDn_Py0f-18">
          <mxGeometry relative="1" as="geometry">
            <mxPoint x="450" y="2807" as="sourcePoint" />
            <mxPoint x="159.5" y="2638.9999999999995" as="targetPoint" />
          </mxGeometry>
        </mxCell>
        <mxCell id="SP0Xm4DU5gB8TDn_Py0f-16" value="" style="shape=message;html=1;outlineConnect=0;" vertex="1" parent="SP0Xm4DU5gB8TDn_Py0f-15">
          <mxGeometry width="20" height="14" relative="1" as="geometry">
            <mxPoint x="-9" y="-6" as="offset" />
          </mxGeometry>
        </mxCell>
        <mxCell id="SP0Xm4DU5gB8TDn_Py0f-17" style="edgeStyle=orthogonalEdgeStyle;rounded=0;orthogonalLoop=1;jettySize=auto;html=1;" edge="1" parent="1" source="SP0Xm4DU5gB8TDn_Py0f-18" target="SP0Xm4DU5gB8TDn_Py0f-22">
          <mxGeometry relative="1" as="geometry" />
        </mxCell>
        <mxCell id="SP0Xm4DU5gB8TDn_Py0f-18" value="" style="shape=cylinder3;whiteSpace=wrap;html=1;boundedLbl=1;backgroundOutline=1;size=15;fillColor=#1ba1e2;fontColor=#ffffff;strokeColor=#006EAF;" vertex="1" parent="1">
          <mxGeometry x="200.5" y="2778" width="60" height="80" as="geometry" />
        </mxCell>
        <mxCell id="SP0Xm4DU5gB8TDn_Py0f-19" value="Buffer Datos" style="text;html=1;align=center;verticalAlign=middle;resizable=0;points=[];autosize=1;strokeColor=none;fillColor=none;" vertex="1" parent="1">
          <mxGeometry x="187.5" y="2858" width="86" height="26" as="geometry" />
        </mxCell>
        <mxCell id="SP0Xm4DU5gB8TDn_Py0f-20" style="edgeStyle=orthogonalEdgeStyle;rounded=0;orthogonalLoop=1;jettySize=auto;html=1;entryX=1;entryY=0.5;entryDx=0;entryDy=0;" edge="1" parent="1" source="SP0Xm4DU5gB8TDn_Py0f-21" target="SP0Xm4DU5gB8TDn_Py0f-30">
          <mxGeometry relative="1" as="geometry" />
        </mxCell>
        <mxCell id="SP0Xm4DU5gB8TDn_Py0f-21" value="" style="shape=mxgraph.cisco.computers_and_peripherals.pc;sketch=0;html=1;pointerEvents=1;dashed=0;fillColor=#036897;strokeColor=#ffffff;strokeWidth=2;verticalLabelPosition=bottom;verticalAlign=top;align=center;outlineConnect=0;" vertex="1" parent="1">
          <mxGeometry x="-325" y="2782" width="78" height="70" as="geometry" />
        </mxCell>
        <mxCell id="SP0Xm4DU5gB8TDn_Py0f-22" value="" style="shape=mxgraph.cisco.computers_and_peripherals.pc;sketch=0;html=1;pointerEvents=1;dashed=0;fillColor=#036897;strokeColor=#ffffff;strokeWidth=2;verticalLabelPosition=bottom;verticalAlign=top;align=center;outlineConnect=0;" vertex="1" parent="1">
          <mxGeometry x="-95.5" y="2782" width="78" height="70" as="geometry" />
        </mxCell>
        <mxCell id="SP0Xm4DU5gB8TDn_Py0f-23" value="Cliente&amp;nbsp;" style="text;html=1;align=center;verticalAlign=middle;resizable=0;points=[];autosize=1;strokeColor=none;fillColor=none;" vertex="1" parent="1">
          <mxGeometry x="-318" y="2854" width="60" height="26" as="geometry" />
        </mxCell>
        <mxCell id="SP0Xm4DU5gB8TDn_Py0f-24" value="&lt;br&gt;Servidor&lt;br&gt;" style="text;html=1;align=center;verticalAlign=middle;resizable=0;points=[];autosize=1;strokeColor=none;fillColor=none;" vertex="1" parent="1">
          <mxGeometry x="-88" y="2839" width="63" height="41" as="geometry" />
        </mxCell>
        <mxCell id="SP0Xm4DU5gB8TDn_Py0f-25" value="" style="endArrow=none;html=1;rounded=0;" edge="1" parent="1" source="SP0Xm4DU5gB8TDn_Py0f-21" target="SP0Xm4DU5gB8TDn_Py0f-22">
          <mxGeometry width="50" height="50" relative="1" as="geometry">
            <mxPoint x="-260" y="2850" as="sourcePoint" />
            <mxPoint x="-172" y="2889" as="targetPoint" />
          </mxGeometry>
        </mxCell>
        <mxCell id="SP0Xm4DU5gB8TDn_Py0f-26" value="TCP" style="text;html=1;align=center;verticalAlign=middle;resizable=0;points=[];autosize=1;strokeColor=none;fillColor=none;" vertex="1" parent="1">
          <mxGeometry x="-195.5" y="2791" width="42" height="26" as="geometry" />
        </mxCell>
        <mxCell id="SP0Xm4DU5gB8TDn_Py0f-27" value="hilo" style="text;html=1;align=center;verticalAlign=middle;resizable=0;points=[];autosize=1;strokeColor=none;fillColor=none;" vertex="1" parent="1">
          <mxGeometry x="-72.5" y="2880" width="38" height="26" as="geometry" />
        </mxCell>
        <mxCell id="SP0Xm4DU5gB8TDn_Py0f-28" value="hilo" style="text;html=1;align=center;verticalAlign=middle;resizable=0;points=[];autosize=1;strokeColor=none;fillColor=none;" vertex="1" parent="1">
          <mxGeometry x="-311.5" y="2880" width="38" height="26" as="geometry" />
        </mxCell>
        <mxCell id="SP0Xm4DU5gB8TDn_Py0f-29" value="VistaCliente" style="swimlane;fontStyle=0;childLayout=stackLayout;horizontal=1;startSize=26;fillColor=#1ba1e2;horizontalStack=0;resizeParent=1;resizeParentMax=0;resizeLast=0;collapsible=1;marginBottom=0;whiteSpace=wrap;html=1;fontColor=#ffffff;strokeColor=#006EAF;" vertex="1" parent="1">
          <mxGeometry x="-627" y="2778" width="202" height="78" as="geometry" />
        </mxCell>
        <mxCell id="SP0Xm4DU5gB8TDn_Py0f-30" value="+ fachadaCliente(): String" style="text;strokeColor=none;fillColor=none;align=left;verticalAlign=top;spacingLeft=4;spacingRight=4;overflow=hidden;rotatable=0;points=[[0,0.5],[1,0.5]];portConstraint=eastwest;whiteSpace=wrap;html=1;" vertex="1" parent="SP0Xm4DU5gB8TDn_Py0f-29">
          <mxGeometry y="26" width="202" height="26" as="geometry" />
        </mxCell>
        <mxCell id="SP0Xm4DU5gB8TDn_Py0f-31" value="+ main():&amp;nbsp;" style="text;strokeColor=none;fillColor=none;align=left;verticalAlign=top;spacingLeft=4;spacingRight=4;overflow=hidden;rotatable=0;points=[[0,0.5],[1,0.5]];portConstraint=eastwest;whiteSpace=wrap;html=1;" vertex="1" parent="SP0Xm4DU5gB8TDn_Py0f-29">
          <mxGeometry y="52" width="202" height="26" as="geometry" />
        </mxCell>
        <mxCell id="SP0Xm4DU5gB8TDn_Py0f-32" value="" style="endArrow=classic;html=1;rounded=0;edgeStyle=orthogonalEdgeStyle;" edge="1" parent="1">
          <mxGeometry relative="1" as="geometry">
            <mxPoint x="450" y="2691" as="sourcePoint" />
            <mxPoint x="193" y="2690" as="targetPoint" />
          </mxGeometry>
        </mxCell>
        <mxCell id="SP0Xm4DU5gB8TDn_Py0f-33" value="" style="shape=message;html=1;outlineConnect=0;" vertex="1" parent="SP0Xm4DU5gB8TDn_Py0f-32">
          <mxGeometry width="20" height="14" relative="1" as="geometry">
            <mxPoint x="-10" y="-7" as="offset" />
          </mxGeometry>
        </mxCell>
        <mxCell id="SP0Xm4DU5gB8TDn_Py0f-34" style="edgeStyle=orthogonalEdgeStyle;rounded=0;orthogonalLoop=1;jettySize=auto;html=1;" edge="1" parent="1" source="SP0Xm4DU5gB8TDn_Py0f-35" target="SP0Xm4DU5gB8TDn_Py0f-44">
          <mxGeometry relative="1" as="geometry" />
        </mxCell>
        <mxCell id="SP0Xm4DU5gB8TDn_Py0f-35" value="" style="shape=cylinder3;whiteSpace=wrap;html=1;boundedLbl=1;backgroundOutline=1;size=15;fillColor=#1ba1e2;fontColor=#ffffff;strokeColor=#006EAF;" vertex="1" parent="1">
          <mxGeometry x="135" y="2649" width="60" height="80" as="geometry" />
        </mxCell>
        <mxCell id="SP0Xm4DU5gB8TDn_Py0f-36" value="Buffer Server" style="text;html=1;align=center;verticalAlign=middle;resizable=0;points=[];autosize=1;strokeColor=none;fillColor=none;" vertex="1" parent="1">
          <mxGeometry x="121" y="2734" width="88" height="26" as="geometry" />
        </mxCell>
        <mxCell id="SP0Xm4DU5gB8TDn_Py0f-37" value="Manda Info" style="text;html=1;align=center;verticalAlign=middle;resizable=0;points=[];autosize=1;strokeColor=none;fillColor=none;" vertex="1" parent="1">
          <mxGeometry x="279" y="2654" width="78" height="26" as="geometry" />
        </mxCell>
        <mxCell id="SP0Xm4DU5gB8TDn_Py0f-38" style="edgeStyle=orthogonalEdgeStyle;rounded=0;orthogonalLoop=1;jettySize=auto;html=1;entryX=0.4;entryY=0.003;entryDx=0;entryDy=0;entryPerimeter=0;exitX=0.75;exitY=0;exitDx=0;exitDy=0;" edge="1" parent="1" source="SP0Xm4DU5gB8TDn_Py0f-40" target="SP0Xm4DU5gB8TDn_Py0f-1">
          <mxGeometry relative="1" as="geometry">
            <mxPoint x="745" y="2496" as="targetPoint" />
            <mxPoint x="-222.99999999999977" y="2546" as="sourcePoint" />
            <Array as="points">
              <mxPoint x="-270" y="2583" />
              <mxPoint x="757" y="2583" />
            </Array>
          </mxGeometry>
        </mxCell>
        <mxCell id="SP0Xm4DU5gB8TDn_Py0f-39" value="llamada a metodos botones para pausar/reanudar cola o operarios" style="edgeLabel;html=1;align=center;verticalAlign=middle;resizable=0;points=[];" connectable="0" vertex="1" parent="SP0Xm4DU5gB8TDn_Py0f-38">
          <mxGeometry x="-0.1157" y="-2" relative="1" as="geometry">
            <mxPoint as="offset" />
          </mxGeometry>
        </mxCell>
        <mxCell id="SP0Xm4DU5gB8TDn_Py0f-40" value="VistaCliente" style="swimlane;fontStyle=0;childLayout=stackLayout;horizontal=1;startSize=26;fillColor=#1ba1e2;horizontalStack=0;resizeParent=1;resizeParentMax=0;resizeLast=0;collapsible=1;marginBottom=0;whiteSpace=wrap;html=1;fontColor=#ffffff;strokeColor=#006EAF;" vertex="1" parent="1">
          <mxGeometry x="-422" y="2649" width="202" height="78" as="geometry" />
        </mxCell>
        <mxCell id="SP0Xm4DU5gB8TDn_Py0f-41" value="+ fachadaCliente(): String" style="text;strokeColor=none;fillColor=none;align=left;verticalAlign=top;spacingLeft=4;spacingRight=4;overflow=hidden;rotatable=0;points=[[0,0.5],[1,0.5]];portConstraint=eastwest;whiteSpace=wrap;html=1;" vertex="1" parent="SP0Xm4DU5gB8TDn_Py0f-40">
          <mxGeometry y="26" width="202" height="26" as="geometry" />
        </mxCell>
        <mxCell id="SP0Xm4DU5gB8TDn_Py0f-42" value="+ main():&amp;nbsp;" style="text;strokeColor=none;fillColor=none;align=left;verticalAlign=top;spacingLeft=4;spacingRight=4;overflow=hidden;rotatable=0;points=[[0,0.5],[1,0.5]];portConstraint=eastwest;whiteSpace=wrap;html=1;" vertex="1" parent="SP0Xm4DU5gB8TDn_Py0f-40">
          <mxGeometry y="52" width="202" height="26" as="geometry" />
        </mxCell>
        <mxCell id="SP0Xm4DU5gB8TDn_Py0f-43" style="edgeStyle=orthogonalEdgeStyle;rounded=0;orthogonalLoop=1;jettySize=auto;html=1;exitX=0;exitY=0.5;exitDx=0;exitDy=0;entryX=1;entryY=0.5;entryDx=0;entryDy=0;" edge="1" parent="1" source="SP0Xm4DU5gB8TDn_Py0f-44" target="SP0Xm4DU5gB8TDn_Py0f-41">
          <mxGeometry relative="1" as="geometry">
            <mxPoint x="-174" y="2706" as="targetPoint" />
            <mxPoint x="-95.22" y="2654" as="sourcePoint" />
          </mxGeometry>
        </mxCell>
        <mxCell id="SP0Xm4DU5gB8TDn_Py0f-44" value="BufferConsuServer" style="ellipse;whiteSpace=wrap;html=1;aspect=fixed;fillColor=#1ba1e2;fontColor=#ffffff;strokeColor=#006EAF;" vertex="1" parent="1">
          <mxGeometry x="-103" y="2633" width="112" height="112" as="geometry" />
        </mxCell>
        <mxCell id="SP0Xm4DU5gB8TDn_Py0f-45" style="edgeStyle=orthogonalEdgeStyle;rounded=0;orthogonalLoop=1;jettySize=auto;html=1;entryX=0.5;entryY=1;entryDx=0;entryDy=0;" edge="1" parent="1" source="SP0Xm4DU5gB8TDn_Py0f-46" target="SP0Xm4DU5gB8TDn_Py0f-1">
          <mxGeometry relative="1" as="geometry" />
        </mxCell>
        <mxCell id="SP0Xm4DU5gB8TDn_Py0f-46" value="" style="shape=mxgraph.cisco.computers_and_peripherals.pc;sketch=0;html=1;pointerEvents=1;dashed=0;fillColor=#036897;strokeColor=#ffffff;strokeWidth=2;verticalLabelPosition=bottom;verticalAlign=top;align=center;outlineConnect=0;" vertex="1" parent="1">
          <mxGeometry x="230.5" y="2901" width="78" height="70" as="geometry" />
        </mxCell>
        <mxCell id="SP0Xm4DU5gB8TDn_Py0f-47" value="Servidor RMI" style="text;html=1;align=center;verticalAlign=middle;resizable=0;points=[];autosize=1;strokeColor=none;fillColor=none;" vertex="1" parent="1">
          <mxGeometry x="226" y="2971" width="87" height="26" as="geometry" />
        </mxCell>
        <mxCell id="SP0Xm4DU5gB8TDn_Py0f-48" style="edgeStyle=orthogonalEdgeStyle;rounded=0;orthogonalLoop=1;jettySize=auto;html=1;entryX=0.16;entryY=0.5;entryDx=0;entryDy=0;entryPerimeter=0;" edge="1" parent="1" source="SP0Xm4DU5gB8TDn_Py0f-29" target="SP0Xm4DU5gB8TDn_Py0f-46">
          <mxGeometry relative="1" as="geometry">
            <Array as="points">
              <mxPoint x="-526" y="2938" />
              <mxPoint x="245" y="2938" />
              <mxPoint x="245" y="2936" />
            </Array>
          </mxGeometry>
        </mxCell>
        <mxCell id="SP0Xm4DU5gB8TDn_Py0f-49" value="Llamada mediente metodos remotos a los botones de pausar/reanudar cola o operarios" style="edgeLabel;html=1;align=center;verticalAlign=middle;resizable=0;points=[];" connectable="0" vertex="1" parent="SP0Xm4DU5gB8TDn_Py0f-48">
          <mxGeometry x="-0.0245" relative="1" as="geometry">
            <mxPoint as="offset" />
          </mxGeometry>
        </mxCell>
        <mxCell id="SP0Xm4DU5gB8TDn_Py0f-50" value="hilo" style="text;html=1;align=center;verticalAlign=middle;resizable=0;points=[];autosize=1;strokeColor=none;fillColor=none;" vertex="1" parent="1">
          <mxGeometry x="-63" y="2745" width="38" height="26" as="geometry" />
        </mxCell>
        <mxCell id="SP0Xm4DU5gB8TDn_Py0f-51" value="hilo" style="text;html=1;align=center;verticalAlign=middle;resizable=0;points=[];autosize=1;strokeColor=none;fillColor=none;" vertex="1" parent="1">
          <mxGeometry x="473.5" y="2783" width="38" height="26" as="geometry" />
        </mxCell>
        <mxCell id="SP0Xm4DU5gB8TDn_Py0f-52" value="hilo" style="text;html=1;align=center;verticalAlign=middle;resizable=0;points=[];autosize=1;strokeColor=none;fillColor=none;" vertex="1" parent="1">
          <mxGeometry x="929.5" y="2791" width="38" height="26" as="geometry" />
        </mxCell>
      </root>
    </mxGraphModel>
  </diagram>
</mxfile>
